<?xml version="1.0" encoding="UTF-8" standalone="no"?>
<!DOCTYPE svg PUBLIC "-//W3C//DTD SVG 1.1//EN" "http://www.w3.org/Graphics/SVG/1.1/DTD/svg11.dtd">
<svg width="100%" height="100%" viewBox="0 0 795 240" version="1.1" xmlns="http://www.w3.org/2000/svg" xmlns:xlink="http://www.w3.org/1999/xlink" xml:space="preserve" xmlns:serif="http://www.serif.com/" style="fill-rule:evenodd;clip-rule:evenodd;stroke-linejoin:round;stroke-miterlimit:2;">
    <g transform="matrix(1,0,0,1,-2164,-1123)">
        <g id="full-logo-black" transform="matrix(0.414062,0,0,0.222222,2164,1123)">
            <rect x="0" y="0" width="1920" height="1080" style="fill:none;"/>
            <g transform="matrix(1.24759,0,0,0.862001,86.6147,57.7121)">
                <g transform="matrix(161.555,0,0,439.922,463.863,715.211)">
                    <path d="M0.841,-0.7L0.841,-0L0.77,-0L0.77,-0.56L0.495,-0.089L0.46,-0.089L0.185,-0.557L0.185,-0L0.114,-0L0.114,-0.7L0.175,-0.7L0.479,-0.181L0.78,-0.7L0.841,-0.7Z" style="fill-rule:nonzero;"/>
                </g>
                <g transform="matrix(161.555,0,0,439.922,618.148,715.211)">
                    <path d="M0.553,-0.187L0.163,-0.187L0.079,-0L0.002,-0L0.322,-0.7L0.395,-0.7L0.715,-0L0.637,-0L0.553,-0.187ZM0.526,-0.247L0.358,-0.623L0.19,-0.247L0.526,-0.247Z" style="fill-rule:nonzero;"/>
                </g>
                <g transform="matrix(161.555,0,0,439.922,728.329,715.211)">
                    <path d="M0.25,-0.636L0.004,-0.636L0.004,-0.7L0.57,-0.7L0.57,-0.636L0.324,-0.636L0.324,-0L0.25,-0L0.25,-0.636Z" style="fill-rule:nonzero;"/>
                </g>
                <g transform="matrix(161.555,0,0,439.922,822.677,715.211)">
                    <path d="M0.25,-0.636L0.004,-0.636L0.004,-0.7L0.57,-0.7L0.57,-0.636L0.324,-0.636L0.324,-0L0.25,-0L0.25,-0.636Z" style="fill-rule:nonzero;"/>
                </g>
                <g transform="matrix(161.555,0,0,439.922,957.737,715.211)">
                    <path d="M0.307,0.006C0.255,0.006 0.205,-0.002 0.158,-0.019C0.11,-0.036 0.073,-0.058 0.047,-0.085L0.076,-0.142C0.101,-0.117 0.135,-0.096 0.177,-0.081C0.219,-0.065 0.262,-0.057 0.307,-0.057C0.37,-0.057 0.417,-0.069 0.448,-0.092C0.479,-0.115 0.495,-0.144 0.495,-0.181C0.495,-0.209 0.487,-0.231 0.47,-0.248C0.452,-0.265 0.432,-0.278 0.407,-0.287C0.382,-0.296 0.348,-0.305 0.304,-0.316C0.251,-0.329 0.209,-0.342 0.178,-0.355C0.147,-0.367 0.12,-0.386 0.098,-0.411C0.075,-0.436 0.064,-0.471 0.064,-0.514C0.064,-0.549 0.073,-0.582 0.092,-0.611C0.111,-0.64 0.139,-0.663 0.178,-0.68C0.217,-0.697 0.265,-0.706 0.322,-0.706C0.362,-0.706 0.401,-0.7 0.44,-0.69C0.478,-0.679 0.511,-0.663 0.539,-0.644L0.514,-0.585C0.485,-0.604 0.453,-0.619 0.42,-0.629C0.387,-0.638 0.354,-0.643 0.322,-0.643C0.261,-0.643 0.215,-0.631 0.184,-0.608C0.153,-0.584 0.137,-0.553 0.137,-0.516C0.137,-0.488 0.146,-0.466 0.163,-0.449C0.18,-0.432 0.201,-0.419 0.227,-0.41C0.252,-0.401 0.287,-0.391 0.33,-0.38C0.381,-0.367 0.423,-0.355 0.455,-0.343C0.486,-0.33 0.513,-0.312 0.535,-0.287C0.557,-0.262 0.568,-0.228 0.568,-0.185C0.568,-0.15 0.559,-0.118 0.54,-0.089C0.521,-0.059 0.491,-0.037 0.452,-0.02C0.413,-0.003 0.364,0.006 0.307,0.006Z" style="fill-rule:nonzero;"/>
                </g>
                <g transform="matrix(161.555,0,0,439.922,1054.67,715.211)">
                    <path d="M0.354,-0.242L0.354,-0L0.281,-0L0.281,-0.242L0.001,-0.7L0.08,-0.7L0.32,-0.307L0.56,-0.7L0.634,-0.7L0.354,-0.242Z" style="fill-rule:nonzero;"/>
                </g>
                <g transform="matrix(161.555,0,0,439.922,1154.83,715.211)">
                    <path d="M0.331,-0.329L0.188,-0.184L0.188,-0L0.114,-0L0.114,-0.7L0.188,-0.7L0.188,-0.277L0.599,-0.7L0.684,-0.7L0.381,-0.383L0.705,-0L0.617,-0L0.331,-0.329Z" style="fill-rule:nonzero;"/>
                </g>
                <g transform="matrix(161.555,0,0,439.922,1269.7,715.211)">
                    <path d="M0.609,-0.064L0.609,-0L0.114,-0L0.114,-0.7L0.594,-0.7L0.594,-0.636L0.188,-0.636L0.188,-0.387L0.55,-0.387L0.55,-0.324L0.188,-0.324L0.188,-0.064L0.609,-0.064Z" style="fill-rule:nonzero;"/>
                </g>
                <g transform="matrix(161.555,0,0,439.922,1377.78,715.211)">
                    <path d="M0.307,0.006C0.255,0.006 0.205,-0.002 0.158,-0.019C0.11,-0.036 0.073,-0.058 0.047,-0.085L0.076,-0.142C0.101,-0.117 0.135,-0.096 0.177,-0.081C0.219,-0.065 0.262,-0.057 0.307,-0.057C0.37,-0.057 0.417,-0.069 0.448,-0.092C0.479,-0.115 0.495,-0.144 0.495,-0.181C0.495,-0.209 0.487,-0.231 0.47,-0.248C0.452,-0.265 0.432,-0.278 0.407,-0.287C0.382,-0.296 0.348,-0.305 0.304,-0.316C0.251,-0.329 0.209,-0.342 0.178,-0.355C0.147,-0.367 0.12,-0.386 0.098,-0.411C0.075,-0.436 0.064,-0.471 0.064,-0.514C0.064,-0.549 0.073,-0.582 0.092,-0.611C0.111,-0.64 0.139,-0.663 0.178,-0.68C0.217,-0.697 0.265,-0.706 0.322,-0.706C0.362,-0.706 0.401,-0.7 0.44,-0.69C0.478,-0.679 0.511,-0.663 0.539,-0.644L0.514,-0.585C0.485,-0.604 0.453,-0.619 0.42,-0.629C0.387,-0.638 0.354,-0.643 0.322,-0.643C0.261,-0.643 0.215,-0.631 0.184,-0.608C0.153,-0.584 0.137,-0.553 0.137,-0.516C0.137,-0.488 0.146,-0.466 0.163,-0.449C0.18,-0.432 0.201,-0.419 0.227,-0.41C0.252,-0.401 0.287,-0.391 0.33,-0.38C0.381,-0.367 0.423,-0.355 0.455,-0.343C0.486,-0.33 0.513,-0.312 0.535,-0.287C0.557,-0.262 0.568,-0.228 0.568,-0.185C0.568,-0.15 0.559,-0.118 0.54,-0.089C0.521,-0.059 0.491,-0.037 0.452,-0.02C0.413,-0.003 0.364,0.006 0.307,0.006Z" style="fill-rule:nonzero;"/>
                </g>
            </g>
            <g transform="matrix(1.2778e-16,4.5,-2.5876,-1.91253e-16,2603.23,-4401)">
                <path d="M1218,838C1218,807.093 1191.12,782 1158,782L1038,782C1004.88,782 978,807.093 978,838L978,950C978,980.907 1004.88,1006 1038,1006L1158,1006C1191.12,1006 1218,980.907 1218,950L1218,838Z" style="fill:url(#_Linear1);"/>
            </g>
            <g transform="matrix(504.661,0,0,940.325,48.9387,869.114)">
                <path d="M0.841,-0.7L0.841,-0L0.77,-0L0.77,-0.56L0.495,-0.089L0.46,-0.089L0.185,-0.557L0.185,-0L0.114,-0L0.114,-0.7L0.175,-0.7L0.479,-0.181L0.78,-0.7L0.841,-0.7Z" style="fill:white;fill-rule:nonzero;"/>
            </g>
        </g>
    </g>
    <defs>
        <linearGradient id="_Linear1" x1="0" y1="0" x2="1" y2="0" gradientUnits="userSpaceOnUse" gradientTransform="matrix(240,0,0,224,978,894)"><stop offset="0" style="stop-color:rgb(53,53,53);stop-opacity:1"/><stop offset="1" style="stop-color:black;stop-opacity:1"/></linearGradient>
    </defs>
</svg>
